imdb : http://www.imdb.com/title/tt0433383/
Tagline: We will not walk in fear of one another.
Plot: Broadcast journalist Edward R. Murrow looks to bring down Senator Joseph McCarthy.
Total Size : 1.27 GB

General
Complete name : Good Night and Good Luck 2005 BDRip [H.264 - MP4 - AAC] ~Mindbreaker.mp4
Format : H.264/AAC/MP4 - Anamophic
Source : 720p.DTS.x264-CHD
File size : 1.27 GiB
Duration : 1h 32mn
Overall bit rate : 1 964 Kbps


Video
ID : 1
Format : AVC
Format/Info : Advanced Video Codec
Format profile : High@L3.0
Duration : 1h 32mn
Bit rate : 1800 Kbps
Width : 720 pixels
Height : 304 pixels
Display aspect ratio : 2.35:1
Frame rate : 23.976 fps
Bits/(Pixel*Frame) : 0.343
Stream size : 1.17 GiB (92%)
Writing library : x264 core 65

Audio
ID : 2
Format : AAC
Format/Info : Advanced Audio Codec
Format profile : LC
Duration : 1h 32mn
Bit rate : 160 Kbps
Channel(s) : 2 channels
Sampling rate : 48.0 KHz
Stream size : 106 MiB (8%)
Language : English

Subtitle
Format : SubRip
Language : Dutch & English
Source : ondertitels.com & opensubtitles.org 
http://genesis.1337x.org:1337/announce
http://tracker.openbittorrent.com/announce
